<?xml version="1.0" encoding="UTF-8" standalone="no"?>
<svg
   xmlns:dc="http://purl.org/dc/elements/1.1/"
   xmlns:cc="http://creativecommons.org/ns#"
   xmlns:rdf="http://www.w3.org/1999/02/22-rdf-syntax-ns#"
   xmlns:svg="http://www.w3.org/2000/svg"
   xmlns="http://www.w3.org/2000/svg"
   xmlns:xlink="http://www.w3.org/1999/xlink"
   width="400"
   height="400"
   viewBox="0 0 399.99998 399.99998"
   id="svg2"
   version="1.1">
  <defs
     id="defs4">
    <linearGradient
       id="linearGradient4393">
      <stop
         style="stop-color:#d4d4d4;stop-opacity:1"
         offset="0"
         id="stop4395" />
      <stop
         style="stop-color:#ffffff;stop-opacity:1"
         offset="1"
         id="stop4397" />
    </linearGradient>
    <linearGradient
       id="background-main-6">
      <stop
         style="stop-color:#0e3a64;stop-opacity:1"
         offset="0"
         id="stop4142" />
      <stop
         style="stop-color:#47a4bd;stop-opacity:1"
         offset="1"
         id="stop4144" />
    </linearGradient>
    <linearGradient
       xlink:href="#background-main-6"
       id="linearGradient4146"
       x1="16.000082"
       y1="1036.3622"
       x2="384.00003"
       y2="668.36224"
       gradientUnits="userSpaceOnUse"
       gradientTransform="translate(-2.3162841e-8,-2.3360538e-6)" />
    <linearGradient
       xlink:href="#linearGradient4393"
       id="linearGradient4399"
       x1="130.72029"
       y1="839.36224"
       x2="169.27971"
       y2="839.36224"
       gradientUnits="userSpaceOnUse" />
  </defs>
  <metadata
     id="metadata7">
    <rdf:RDF>
      <cc:Work
         rdf:about="">
        <dc:format>image/svg+xml</dc:format>
        <dc:type
           rdf:resource="http://purl.org/dc/dcmitype/StillImage" />
        <dc:title></dc:title>
      </cc:Work>
    </rdf:RDF>
  </metadata>
  <g
     id="layer1"
     transform="translate(0,-652.36227)">
    <rect
       style="fill:url(#linearGradient4146);fill-opacity:1;stroke:none;stroke-width:9.99999905;stroke-miterlimit:4;stroke-dasharray:none;stroke-opacity:1"
       id="rect4136"
       width="400"
       height="400"
       x="0"
       y="652.36224" />
    <rect
       ry="5"
       rx="5"
       style="fill:none;fill-opacity:0.79599998;stroke:#ffffff;stroke-width:9.99999976;stroke-miterlimit:4;stroke-dasharray:none;stroke-opacity:0.49803922;stroke-linecap:round;stroke-dashoffset:0"
       id="rect4152"
       width="124.99998"
       height="125.00001"
       x="50"
       y="702.36224" />
    <rect
       ry="5"
       rx="5"
       style="fill:none;fill-opacity:0.48800001;stroke:#ffffff;stroke-width:9.99999976;stroke-miterlimit:4;stroke-dasharray:none;stroke-opacity:0.49803922;stroke-dashoffset:0;stroke-linecap:round"
       id="rect4152-7"
       width="124.99996"
       height="124.99999"
       x="51.000004"
       y="851.36224" />
    <rect
       rx="5"
       ry="5"
       style="fill:none;fill-opacity:0.48800001;stroke:#ffffff;stroke-width:9.99999976;stroke-miterlimit:4;stroke-dasharray:none;stroke-opacity:0.49803922;stroke-dashoffset:0;stroke-linecap:round"
       id="rect4152-7-5"
       width="124.99995"
       height="124.99998"
       x="194.99998"
       y="702.36224" />
    <g
       id="g4194"
       transform="matrix(0.86377717,-0.86377717,0.86377717,0.86377717,-634.93515,273.56026)">
      <g
         id="g4191"
         style="fill-opacity:1;fill:none">
        <path
           style="fill:none;fill-opacity:1;stroke:#ffffff;stroke-width:8.18621656;stroke-miterlimit:4;stroke-dasharray:none;stroke-opacity:1"
           d="m 150,49 a 76.000009,76.000009 0 0 0 -76,76 76.000009,76.000009 0 0 0 51.21484,71.75586 C 125.07819,197.8184 125,198.89909 125,200 l 0,100 c 0,13.85 11.15,25 25,25 13.85,0 25,-11.15 25,-25 l 0,-100 c 0,-1.1029 -0.0777,-2.18561 -0.21484,-3.25 A 76.000009,76.000009 0 0 0 226,125 76.000009,76.000009 0 0 0 150,49 Z"
           id="path4184"
           transform="translate(0,652.36227)" />
      </g>
      <path
         style="fill:#ffffff;fill-opacity:1;stroke:none;stroke-width:10;stroke-miterlimit:4;stroke-dasharray:none;stroke-opacity:1"
         d="M 166.99023 102.02734 A 61.078277 61.078277 0 0 0 122.91016 119.91016 A 61.078277 61.078277 0 0 0 106.22266 175 L 175 175 L 175 102.74023 A 61.078277 61.078277 0 0 0 166.99023 102.02734 z "
         transform="matrix(0.57885292,0.57885292,-0.57885292,0.57885292,148.26343,586.80479)"
         id="rect4152-6" />
      <circle
         r="50"
         cy="777.36224"
         cx="150"
         id="path4189"
         style="fill:none;fill-opacity:1;stroke:#ffffff;stroke-width:8.18621656;stroke-miterlimit:4;stroke-dasharray:8.18621656,24.55864967;stroke-opacity:1;stroke-dashoffset:0;stroke-linecap:round" />
    </g>
  </g>
</svg>
